<?xml version="1.0" standalone="no"?><!DOCTYPE svg PUBLIC "-//W3C//DTD SVG 1.1//EN" "http://www.w3.org/Graphics/SVG/1.1/DTD/svg11.dtd"><svg t="1775354300001" class="icon" viewBox="0 0 1024 1024" version="1.1" xmlns="http://www.w3.org/2000/svg" p-id="4001" xmlns:xlink="http://www.w3.org/1999/xlink" width="200" height="200"><path d="M510.72 28.16v209.92S181.76 328.96 107.52 556.8s203.52 290.56 403.2 227.84c0 0-336.64 98.56-473.6-80.64s126.72-503.04 473.6-675.84z" fill="#020202" p-id="4002"></path><path d="M509.44 995.84V785.92s332.8-90.88 407.04-318.72-203.52-290.56-403.2-229.12c0 0 336.64-98.56 473.6 80.64S856.32 823.04 509.44 995.84z" fill="#020202" p-id="4003"></path><path d="M897.28 328.96c51.2 136.96-67.84 307.2-300.8 405.76-32 14.08-56.32 25.6-88.32 33.28V504.32l389.12-175.36z" fill="#020202" p-id="4004"></path></svg>